<svg xmlns="http://www.w3.org/2000/svg" width="128" height="128"><path d="M0 0h128v128H0V0z" fill="#857250"/><path d="M0 0h128v40h-1l-.262-2.012c-.958-6.021-2.04-8.864-6.738-12.988a199.598 199.598 0 0 1-3-6l-2-1c1.744 6.253 3.893 10.945 8 16l2 1c1.33 5.392 1.034 10.603 0 16h-1l-.813-3c-.393-1.334-.789-2.667-1.187-4l-.555-2.035C119.7 36.374 116.83 33.26 112 30l-2.133-.984c-2.84-1.545-3.445-4.172-4.867-7.016-5.177-5.033-10.336-7.177-17.438-7.188-1.52.048-3.042.105-4.562.188 1.397 5.277 4.612 8.05 9 11 4.624 2.444 8.78 4.318 14.063 3.75 5.187.33 7.303 2.142 10.949 5.719 5.335 6.791 6.717 15.211 6.46 23.683-.757 4.566-2.826 8.106-5.472 11.848-1.5-1.375-1.5-1.375-3-3v-2l-4-1c.62-4.233 2.105-7.523 4.063-11.313l1.66-3.238L118 48c-3.058-.544-5.888-1-9-1-2.452-2.068-3.9-3.795-5.313-6.688-1.592-2.718-1.592-2.718-5.374-3.124L95 37l-.918 1.75C92.829 40.97 91.607 43.02 90 45c-2.813.5-2.813.5-5 0v-2c-2.865 2.128-5.15 4.181-7.438 6.938C75 53 75 53 71.876 55.312 68.155 58.79 67.203 62.154 66 67l-3-1c-.763 5.15-1.067 8.932 0 14l-1.61.77C57.669 82.583 54.203 84.33 51 87c-2.273-2.273-1.233-7.576-1.25-10.625l-.063-2.7C49.654 68.007 50.121 63.94 53 59c2.164-1.723 2.164-1.723 4.625-3.063 4.714-3.04 7.428-6.334 10.375-11l1.131-1.787C71.304 39.554 72.823 36.027 74 32c-5.24 2.328-9.155 4.62-13 9l-2.063 2.25C53.947 50.335 51.603 58.817 49 67h-1l-.297-3.586c-1.067-11.656-1.067-11.656-4.898-22.664C42 39 42 39 42 37h-2c-1.821 13.888-.953 23.698 5.75 36.188C48.134 77.745 48.471 80.907 48 86c-2.188.375-2.188.375-5 0-1.99-1.84-3.39-3.792-5-6-3.887.243-5.947 1.619-8.875 4-3.69 2.911-6.363 3.73-11.125 4-1.67.316-3.338.646-5 1l-.7-2.012C10.02 80.813 7.847 76.17 1.873 72.8 0 71 0 71-.48 67.944l.027-3.802-.002-2.134c.003-2.278.034-4.554.065-6.832.006-1.407.01-2.814.013-4.22.02-5.215.076-10.43.128-15.644L0 0z" fill="#EFF8FA"/><path d="M87.438 13.625c6.666.076 12.336 2.415 17.265 6.938 2.07 2.378 3.298 4.44 4.297 7.437a156.584 156.584 0 0 0 5 3c5.56 3.858 7.665 7.694 10 14 1.233-1.008 1.233-1.008 1.098-3.066l-.035-2.496-.028-2.504L125 35l-1.8-.707c-4.548-2.673-7.439-8.508-8.805-13.508-.27-1.91-.27-1.91-.395-4.785l1 2 3 1c1.281 1.996 1.281 1.996 2.5 4.438 1.664 3.321 2.311 4.436 5.5 6.562 3.837 8.864 2.248 20.786 2.195 30.227l-.008 5.876c-.008 5.126-.027 10.251-.05 15.377-.02 5.242-.03 10.485-.04 15.727-.02 10.264-.055 20.529-.097 30.793-7.755.164-15.51.288-23.267.363-3.604.036-7.207.085-10.81.165-16.076.35-30.178.147-45.011-6.802C45.683 120.5 42.425 120.34 39 120c-2.75-1.375-2.75-1.375-5-3l-2.313-1.625L30 114v-1c8.535-.43 15.309.368 22.82 4.582 10.135 4.52 23.922 1.168 33.922-2.621A76.546 76.546 0 0 0 91 113c1.874-.07 3.75-.084 5.625-.063l3.04.028L102 113l1-3 3.188-.938c5.127-1.928 6.569-6.658 8.746-11.347 1.188-2.54 1.188-2.54 1.066-4.715.156-1.543.324-3.084.5-4.625l.281-2.477L117 84l-.313 1.938L116 88c-2.892.964-5 1-8 1l-.688 2.188c-1.887 4.044-4.594 6.685-8.312 9.124-2.42.832-4.46.83-7 .688v3l-5-1 3-1 .25-1.875C91 98 91 98 94.563 96.25L98 95v2h2v-3h2v-3h2l1-3-2-2 7-1v-2l-4-1 4-2 1 1-1-8-1.563 3.625c-2.29 4.548-5.112 7.67-9.437 10.375-2.332.672-4.665 1.34-7 2a149.393 149.393 0 0 0-4 5h-4l1-2h3l1-5h2l1-2-4 1v-3l-1.5 1c-4.249 1.7-8.636 1.67-12.938.125C72 83 72 83 71 81a196.047 196.047 0 0 1 0-7c.15-2.075.15-2.075-1-4-.045-4.579.469-8.133 2.875-12.063C75 56 75 56 78 56l1 6c1.053-2.631 1.053-2.631 1-4l-1-1c-.522-4.702-.935-8.69 1.875-12.625C83 43 83 43 85 43v2h5l.813-2.813C92.591 37.413 92.591 37.413 95 36c3.313-.25 3.313-.25 7 1 2.395 2.787 4.228 5.788 6 9l2-1c1.945.559 1.945.559 4.125 1.438l2.195.87L118 48c-1.569 4.052-3.356 7.98-5.195 11.914-.985 2.18-.985 2.18-.805 5.086l2.438.813L117 67l1 3c4.746-7.713 5.106-14.355 3.375-23.191-1.756-6.266-4.035-10.681-9.242-14.688-2.697-1.418-4.995-1.4-8-1.129-7.196.027-13.53-4.526-18.57-9.242C83.697 19.661 82.66 17.725 82 15c1.595-1.595 3.228-1.285 5.438-1.375z" fill="#86C27E"/><path d="m79 49 .188 3.75c.416 3.556.655 4.096 3.374 6.75L85 61l-5-1 1 3-3-1v-6c-2.92 1.46-4.68 2.436-6.313 5.313-1.019 3.985-1.303 7.224.313 11.062L73 74h-2l1 9c5.53.71 10.5 1.303 16 0l1 2h3c-1 3-1 3-3 4l-1 3c-2.063 1.188-2.063 1.188-4 2 1.835-.056 1.835-.056 4-1 1.2-1.525 2.4-3.05 3.586-4.586C93.896 86.104 96.9 85.816 100 85c5.545-3.625 7.135-6.886 9-13l2 1c.414 2.066.414 2.066.625 4.563l.227 2.503L112 82l-3-1-1 1 2 1v2l-5 1v3l-1 2h-2v3h-2v3l-3-1-3 2h-3l-2 5 3 1v-3l1.828-.586 2.422-.789 2.39-.773c2.252-.813 4.302-1.63 6.36-2.852a89.286 89.286 0 0 0 2-5c2.004-2.44 2.914-2.971 6-4l3 1-1-5 3 1-.781 5.957c-.272 2.198-.272 2.198-.219 5.043-4.846 11.43-4.846 11.43-8.988 14.45-1.887.737-1.887.737-5.012 1.55l-1 2c-2.652.344-2.652.344-5.938.5-4.557-.003-4.557-.003-8.062 2.5-1.883.563-1.883.563-4.125 1-2.925.583-5.64 1.237-8.5 2.125-9.643 2.372-19.105 2.009-27.715-3.031L46 115l3-2 3 2 3-1-1-2 5 1-.688-1.938C57.86 106.626 59.417 103.106 61 99l-3 1v-3c-3.634.62-6.795 1.63-10.188 3.063C43.215 102 43.215 102 41 102c1.63 3.206 1.63 3.206 4.313 3.477l2.687.148c4.841.296 4.841.296 7 1.375l-5 5-2.313-1.5c-2.61-1.744-2.61-1.744-5.687-1.5-1.73-.153-3.46-.32-5.188-.5l-2.73-.281L32 108l2-1-2-2c-2.233.199-2.233.199-4.625.875l-2.477.617L23 107c1.507-3.013 4.032-3.61 7-5l-10 2c3.563-2.672 5.846-3.773 10-5l.188-2.375C31 94 31 94 33.063 92.625c2.788-.593 4.308-.54 7.062-.125 3.93.938 3.93.938 6.875-1.5h3v-3h2l.688-1.813C54.871 82.547 58.075 81.308 62 80c-.656-3.61-.656-3.61-2-7h2l1-7h2l.875-3.438C67.438 58.282 73.965 49 79 49z" fill="#442E24"/><path d="M76 9h13l-1 4c-2.563 1.25-2.563 1.25-5 2 1.397 5.277 4.612 8.05 9 11 4.624 2.444 8.78 4.318 14.063 3.75 5.187.33 7.303 2.142 10.949 5.719 5.335 6.791 6.717 15.211 6.46 23.683-.757 4.566-2.826 8.106-5.472 11.848-1.5-1.375-1.5-1.375-3-3v-2l-4-1c.62-4.233 2.105-7.523 4.063-11.313l1.66-3.238L118 48c-3.058-.544-5.888-1-9-1-2.452-2.068-3.9-3.795-5.313-6.688-1.592-2.718-1.592-2.718-5.374-3.124L95 37l-.918 1.75C92.829 40.97 91.607 43.02 90 45c-2.813.5-2.813.5-5 0v-2c-2.865 2.128-5.15 4.181-7.438 6.938C75 53 75 53 71.876 55.312 68.155 58.79 67.203 62.154 66 67l-3-1c-.763 5.15-1.067 8.932 0 14l-1.61.77C57.669 82.583 54.203 84.33 51 87c-2.273-2.273-1.233-7.576-1.25-10.625l-.063-2.7C49.654 68.007 50.121 63.94 53 59c2.164-1.723 2.164-1.723 4.625-3.063 4.714-3.04 7.428-6.334 10.375-11l1.131-1.787C71.304 39.554 72.823 36.027 74 32c-5.24 2.328-9.155 4.62-13 9l-2.063 2.25C53.947 50.335 51.603 58.817 49 67h-1l-.332-3.656-.48-4.844-.213-2.398C46.41 50.599 45.042 46.134 43 41c-.125-3.188-.125-3.188 0-6a86.603 86.603 0 0 0-1-5h3l1-4-4-2c7.833-1.002 15.159-.89 23 0v-4l-2-1 1-5-2-1c4.53-1.132 4.53-1.132 7-.438 2.8.613 4.467-.366 7-1.562V9z" fill="#EDF9FB"/><path d="M36 0h92v40h-1l-.262-2.012c-.958-6.021-2.04-8.864-6.738-12.988a199.598 199.598 0 0 1-3-6l-2-1c1.744 6.253 3.893 10.945 8 16l2 1c1.33 5.392 1.034 10.603 0 16h-1l-.813-3c-.393-1.334-.789-2.667-1.187-4l-.555-2.035C119.7 36.374 116.83 33.26 112 30l-2.133-.984c-2.84-1.545-3.445-4.172-4.867-7.016-5.399-5.249-11.62-7.247-19-8l1-3h2V9l-1.5.5c-2.5.5-2.5.5-6.313.313-3.302-.074-5.144.496-7.937 2.25C70 14 70 14 67.687 13.687L66 13l-2 1c-.1 3.501.27 6.58 1 10l-3.324-.035-4.364-.027-2.185-.026C51.284 23.895 47.734 24.065 44 25l2 1-1 4h-4v-4l-2-1-1-3c2.434-1.217 4.418-1.32 7.125-1.563l2.758-.253L50 20l-1-4h-4v-2l-5-2v2l-2.313-1C35.01 11.826 35.01 11.826 32 12V7l8 1V2l-4 1V0z" fill="#DEF8FA"/><path d="M98.313 35.75c5.347 1.813 7.043 5.457 9.687 10.25l2-1c1.945.559 1.945.559 4.125 1.438l2.195.87L118 48c-1.835 4.74-3.92 9.364-6 14h-2l-.75 2.75c-1.333 3.465-2.298 5.036-5.25 7.25-3.25.75-3.25.75-6 1l-2-3c-3.355-.366-3.355-.366-7.125-.188l-3.883.083L82 70v-3l-5 5 1 1v2l3.375-.125C85 75 85 75 87 77c-.375 2.625-.375 2.625-1 5l-4-1 1 3c-1 1-1 1-3.813 1.188C76.112 85.007 74.53 84.686 72 83c-1.48-2.961-1.058-5.73-1-9 .15-2.075.15-2.075-1-4-.045-4.579.469-8.133 2.875-12.063C75 56 75 56 78 56l1 6c1.053-2.631 1.053-2.631 1-4l-1-1c-.522-4.702-.935-8.69 1.875-12.625C83 43 83 43 85 43v2h5l.813-2.813c1.745-4.686 2.373-6.05 7.5-6.437z" fill="#F2DF72"/><path d="M59 97v2h2l-.438 2.555-.562 3.32-.563 3.305c-.488 2.674-.488 2.674-.437 4.82h-4l1 2c-2.313.625-2.313.625-5 1l-3-2a109.04 109.04 0 0 0-8.188-.125l-2.271.027c-1.847.024-3.694.06-5.541.098 4.93 4.163 8.41 5.44 14.734 6.332 6.669 1.364 12.96 4.152 19.266 6.668v1H0v-18l8-2 2.563-1.188c2.773-.924 4.386-.456 7.19.094 5.154.215 10.302-1.59 15.247-2.906l1 3c2.952.984 4.932 1.079 8 1 2 0 2 0 3.938 1 2.13 1.218 2.13 1.218 5.062 1l2-3-2.117-.078-2.758-.172-2.742-.14C43 106 43 106 41.68 103.952L41 102l2.555-1.059 3.32-1.379 3.305-1.37C55.492 95.946 55.492 95.946 59 97z" fill="#211611"/><path d="M87.438 13.625c6.666.076 12.336 2.415 17.265 6.938 2.07 2.378 3.298 4.44 4.297 7.437a156.584 156.584 0 0 0 5 3c5.56 3.858 7.665 7.694 10 14 1.233-1.008 1.233-1.008 1.098-3.066l-.035-2.496-.028-2.504L125 35l-1.8-.707c-4.548-2.673-7.439-8.508-8.805-13.508-.27-1.91-.27-1.91-.395-4.785l1 2 3 1c1.281 1.996 1.281 1.996 2.5 4.438 1.664 3.321 2.311 4.436 5.5 6.562.766 2.102.766 2.102 1.25 4.625l.516 2.477c.301 3.733-.176 7.222-.766 10.898l-.38 2.382C124.768 61.49 122.862 72.746 118 83l-2 1v4c-2.892.964-5 1-8 1l-.688 2.188c-1.887 4.044-4.594 6.685-8.312 9.124-2.42.832-4.46.83-7 .688v3l-5-1 3-1 .25-1.875C91 98 91 98 94.563 96.25L98 95v2h2v-3h2v-3h2l1-3-2-2 7-1v-2l-4-1 4-2 1 1-1-8-1.563 3.625c-2.29 4.548-5.112 7.67-9.437 10.375-2.332.672-4.665 1.34-7 2a149.393 149.393 0 0 0-4 5h-4l1-2h3l1-5h2l1-2-4 1v-3l-4 2-2-4 4 1c.043-1.666.04-3.334 0-5-1.167-1.37-1.167-1.37-4.375-1.438C78 75 78 75 75 73l2.375-1.813C80.145 69.09 80.145 69.09 82 66l2 1-2 3 15-1 2 3c2.579-.348 4.501-.636 6.625-2.188 1.847-2.434 3.086-5.05 4.375-7.812l2 3 2.563 1L117 67l1 3c4.746-7.713 5.106-14.355 3.375-23.191-1.756-6.266-4.035-10.681-9.242-14.688-2.697-1.418-4.995-1.4-8-1.129-7.196.027-13.53-4.526-18.57-9.242C83.697 19.661 82.66 17.725 82 15c1.595-1.595 3.228-1.285 5.438-1.375z" fill="#734C35"/><path d="m79 49 .188 3.75c.416 3.556.655 4.096 3.374 6.75L85 61l-5-1 1 3-3-1v-6c-2.92 1.46-4.68 2.436-6.313 5.313-1.019 3.985-1.303 7.224.313 11.062L73 74h-2l1 9c5.53.71 10.5 1.303 16 0l1 2h3c-1 3-1 3-3 4l-1 3c-2.063 1.188-2.063 1.188-4 2 1.835-.056 1.835-.056 4-1 1.2-1.525 2.4-3.05 3.586-4.586C93.896 86.104 96.9 85.816 100 85c5.545-3.625 7.135-6.886 9-13l2 1c.414 2.066.414 2.066.625 4.563l.227 2.503L112 82l-3-1-1 1 2 1v2l-5 1v3l-1 2h-2v3h-2v3l-3-1-3 2h-3l-2 5 3 1v-3l7-1c1.125 3.75 1.125 3.75 0 6-3.645.89-6.427 1.237-10 0v2h-3v2l6-2-1 4-6-1v-3h-2v-2c-1.294.451-2.585.911-3.875 1.375l-2.18.773c-2.127.79-2.127.79-3.945 2.852-2.125-.375-2.125-.375-4-1v-4h-2v-2l-4 1 2-9-9-1 1-4 5-1 3-9-3-1-.438-2.375c-.44-2.59-.44-2.59-1.562-4.625h2l1-7h2l.875-3.438C67.438 58.282 73.965 49 79 49z" fill="#46291B"/><path d="m0 64 1.563.438C5.683 65.388 9.77 66 14 66c1.605.18 3.21.368 4.813.563 3.1.332 5.336.411 8.437-.126 3.425-.544 5.575.278 8.75 1.563l2-4h3c8.036 14.597 8.036 14.597 7 22-2.188.375-2.188.375-5 0-1.99-1.84-3.39-3.792-5-6-3.887.243-5.947 1.619-8.875 4-3.69 2.911-6.363 3.73-11.125 4-1.67.316-3.338.646-5 1l-.7-2.012C9.96 80.65 7.695 76.197 1.688 72.625 0 71 0 71-.25 67.312L0 64z" fill="beige"/><path d="M30 113c8.184-.413 15.349.005 22.39 4.539 5.192 2.101 9.988 1.851 15.536 1.79l3.464-.007c2.408-.006 4.817-.02 7.225-.04 3.702-.032 7.403-.042 11.106-.048l7.017-.03 3.374-.014 3.096-.029 2.738-.02c2.047.086 2.047.086 3.054-1.141 2.823-.1 5.615-.139 8.438-.125l2.392-.012c5.917.01 5.917.01 8.17 1.137v9c-7.755.164-15.51.288-23.267.363-3.604.036-7.207.085-10.81.165-16.076.35-30.178.147-45.011-6.802C45.683 120.5 42.425 120.34 39 120c-2.75-1.375-2.75-1.375-5-3l-2.313-1.625L30 114v-1z" fill="#CCE2A6"/><path d="M36 0h35l-1 4-1.934-.254-2.504-.308-2.496-.317L61 3c-1.422 1.316-1.422 1.316-3 5h12l-1 4c-2.563 1.25-2.563 1.25-5 2-.1 3.501.27 6.58 1 10l-3.324-.035-4.364-.027-2.185-.026C51.284 23.895 47.734 24.065 44 25l2 1-1 4h-4v-4l-2-1-1-3c2.434-1.217 4.418-1.32 7.125-1.563l2.758-.253L50 20l-1-4h-4v-2l-5-2v2l-2.313-1C35.01 11.826 35.01 11.826 32 12V7l8 1V2l-4 1V0z" fill="#D8ECF4"/><path d="M74 32c-.515 4.667-1.722 7.663-4.313 11.563l-1.8 2.753c-3.834 5.453-7.095 8.675-12.864 11.961C52.208 60.674 51.775 62.38 51 66c-.241 3.423-.234 6.82-.188 10.25l.002 2.758C50.682 83.66 50.682 83.66 52 88h-2v3c-4.75-.875-4.75-.875-7-2v-3h5c-.84-7.287-3.31-13.316-6.524-19.82C36.674 56.45 37.282 47.36 40 37h2c3.486 6.165 4.886 11.505 5.75 18.5l.379 2.781c.303 2.238.593 4.478.871 6.719l.918-3c2.276-7.245 4.483-13.853 9.082-20l1.813-2.688C64.382 35.538 68.668 32 74 32z" fill="#909C70"/><path d="m109 72 2 1c.414 2.066.414 2.066.625 4.563l.227 2.503L112 82l-3-1-1 1 2 1v2l-5 1v3l-1 2h-2v3h-2v3l-3-1-3 2h-3l-1 4h-3l-1 2v-2l-5 1-3-4-1 5c-1.938-.375-1.938-.375-4-1l-1-2h2c1.333-3 1.333-3 0-6-.128-2.674-.044-5.321 0-8h-2l-1 2c-2-3-2-3-2-7h-2v-5l4-2 1 8c5.53.71 10.5 1.303 16 0l1 2h3c-1 3-1 3-3 4l-1 3c-2.063 1.188-2.063 1.188-4 2 1.835-.056 1.835-.056 4-1 1.2-1.525 2.4-3.05 3.586-4.586C93.896 86.104 96.9 85.816 100 85c5.545-3.625 7.135-6.886 9-13z" fill="#1F1816"/><path d="m115 83 3 1-.781 5.957c-.272 2.198-.272 2.198-.219 5.043-4.846 11.43-4.846 11.43-8.988 14.45-1.887.737-1.887.737-5.012 1.55l-1 2c-2.652.344-2.652.344-5.938.5-4.557-.003-4.557-.003-8.062 2.5-2.91.145-5.72.186-8.625.125l-2.43-.027c-1.982-.024-3.963-.06-5.945-.098v-2l-4 2c.688-2.375.688-2.375 2-5 2.313-1.125 2.313-1.125 5-2l2.563-1.625C79 106 79 106 83 106v2h2v3c3.629.151 3.629.151 7-1v-2l-6 2 1-4c3.354-1.118 5.59-.787 9 0h3l-.25-2.75c.25-3.25.25-3.25 2.125-5.625C103 96 103 96 105 96l.813-2.313c1.15-2.605 1.992-3.93 4.187-5.687 3-1 3-1 6 0l-1-5z" fill="#4F2B17"/><path d="M99 0h29v40h-1l-.262-2.012c-.958-6.021-2.04-8.864-6.738-12.988l-1.563-3.25c-1.114-2.916-1.114-2.916-3.527-3.422L113 18c-2.286-8.429-2.286-8.429-2-13l-2.625-.313C104.833 3.966 102.157 2.73 99 1V0z" fill="#5CD3EC"/><path d="M81 45c3.625.375 3.625.375 7 1l-1 5h2v3h-2c.458 3.47.891 6.674 2 10l-3.188 1.188C82.084 66.763 79.704 68.969 77 72l1 1v2l3.375-.125C85 75 85 75 87 77c-.375 2.625-.375 2.625-1 5l-4-1 1 3c-1 1-1 1-3.813 1.188C76.112 85.007 74.53 84.686 72 83c-1.48-2.961-1.058-5.73-1-9 .15-2.075.15-2.075-1-4-.045-4.579.469-8.133 2.875-12.063C75 56 75 56 78 56l1 6c1.053-2.631 1.053-2.631 1-4l-1-1a72.148 72.148 0 0 1-.188-4.938l-.042-2.714C79 47 79 47 81 45z" fill="#D8AC3D"/><path d="M0 0h36l1 2h3v6c-2.606.93-3.642 1.15-6.25.063L32 7v5l1.813-.625C36 11 36 11 39 13c-2.944 1.472-5.374.85-8.625.563l-3.602-.31L24 13v-2l-2.813 1.063C18 13 18 13 15 12c-2.529.845-2.529.845-5 2l-3 1c1-3 1-3 2-5H5l1-5-6 1V0z" fill="#ACE2F7"/><path d="M109 64h1a179.849 179.849 0 0 1-.676 4.871 91.775 91.775 0 0 0-.554 4.352c-.856 5.867-2.984 8.753-7.61 12.422C98.277 87.454 95.27 88.12 92 89a149.393 149.393 0 0 0-4 5h-4l1-2h3l1-5h2l1-2-4 1v-3l-4 2-2-4 4 1c.043-1.666.04-3.334 0-5-1.167-1.37-1.167-1.37-4.375-1.438C78 75 78 75 75 73l2.375-1.813C80.145 69.09 80.145 69.09 82 66l2 1-2 3 15-1 2 3c3.689-.498 5.685-1.024 8-4 1.176-2.1 1.176-2.1 2-4z" fill="#DDB751"/><path d="M100 30c4.562-.686 8.384-.87 12.527 1.36 7.25 5.837 9.703 12.723 10.88 21.761.366 7.203-1.262 12.017-5.407 17.879-1.5-1.375-1.5-1.375-3-3v-2l-4-1c.62-4.233 2.105-7.523 4.063-11.313l1.66-3.238L118 48c-3.058-.544-5.888-1-9-1-3.106-2.621-4.979-5.509-7-9l-2-2h4l1-3h-5v-3z" fill="#C3F0F8"/><path d="M127 44h1v55l-11 1c-2.288 2.355-2.288 2.355-3 5l-3-1 1.348-2.336 1.715-3.039 1.722-3.023L117 93l-1-2c.47-5.541 2.027-10.411 3.813-15.625C123.216 65.09 125.195 54.665 127 44z" fill="#A0936C"/><path d="M98.375 35.875c4.199 1.303 5.605 2.566 7.871 6.223C107 44 107 44 106.625 47.125c-2.154 3.81-4.659 6.892-8.625 8.875-1.88 4.417-1.88 4.417-1 9a90.223 90.223 0 0 0 4 4l-6-2v-4h-4v4h-3v-2l-4 1 1-2h4v-2l-3-1c0-2.621.313-4.51 1-7h2v-3h-2l1-5-6-1 1-2h2v2h5l.813-2.813c1.757-4.718 2.364-6.12 7.562-6.312z" fill="#A17E53"/><path d="M71 0c4.416-.147 8.832-.235 13.25-.313l3.742-.126C96.737-.555 103.22 1 111 5l-1 4-1.625-.988c-2.938-1.252-5.19-1.243-8.375-1.2l-3.125.02c-2.481.145-4.5.503-6.875 1.168-7.465 1.268-7.465 1.268-10 0v2l-1.625.313c-3 .868-5.613 2.243-8.375 3.687l-3-2 2-3-5.957.098C61 9 61 9 58 8V6l-2-1 3-1-1-2 3-1v2c1.67-.03 1.67-.03 3.375-.063C68 3 68 3 70 4l1-4z" fill="#AFE5F5"/><path d="M87.438 13.625c6.666.076 12.336 2.415 17.265 6.938 2.07 2.378 3.298 4.44 4.297 7.437a156.584 156.584 0 0 0 5 3c6.596 4.577 9.07 9.855 10.813 17.625.2 3.609-.161 6.826-.813 10.375h-1l-.332-2.309c-1.932-13.904-1.932-13.904-10.5-24.464-2.717-1.538-4.96-1.512-8.035-1.235-7.196.027-13.53-4.526-18.57-9.242C83.697 19.661 82.66 17.725 82 15c1.595-1.595 3.228-1.285 5.438-1.375z" fill="#4D974B"/><path d="M34 105v2l-2.957 1.426-3.855 1.886-1.948.936c-3.268 1.609-5.714 3.168-8.24 5.752l-2.398.898c-3.212 1.36-4.87 3.176-7.227 5.727-2.29 2.477-2.29 2.477-4.375 4.375H0v-18l8-2 2.563-1.188C13 106 13 106 16.063 106.563c4.925.548 8.649-.596 13.363-1.968C32 104 32 104 34 105z" fill="#A5785F"/><path d="M36.602 79.14C39.932 80.335 41.14 82.04 43 85v4l4 2c-1 1.563-1 1.563-3 3-2.72-.083-5.303-.572-8-1l-2 1c-1.448.083-2.9.107-4.352.098l-2.578-.01-2.695-.025-2.719-.014C19.437 94.037 17.22 94.02 15 94l-1-5c5.35-3.057 5.35-3.057 8.875-2.75 4.402-.352 6.13-2.703 9.098-5.816C34 79 34 79 36.602 79.14z" fill="#5C99A9"/><path d="M0 78c4.5 4.5 4.5 4.5 6.035 7.68l1.014 2.066 1.013 2.129 1.026 2.105c.664 1.364 1.323 2.73 1.979 4.097.865 1.783 1.77 3.545 2.68 5.306C15 104 15 104 15 106a251.644 251.644 0 0 1-4.125 2l-2.32 1.125C6 110 6 110 0 110V78z" fill="#41664E"/><path d="m79 49 .188 3.75c.416 3.556.655 4.096 3.374 6.75L85 61l-5-1 1 3-3-1v-6c-2.92 1.46-4.68 2.436-6.313 5.313-1.019 3.985-1.303 7.224.313 11.062L73 74c-3.875 3-3.875 3-5 3l-1 5h2c1.837 3.782 2.158 5.946 1 10l3 1-4 1-1.875-2.438c-1.867-2.6-1.867-2.6-4.125-3.562a84.76 84.76 0 0 1 2-7l-3-1-.438-2.375c-.44-2.59-.44-2.59-1.562-4.625h2l1-7h2l.875-3.438C67.438 58.282 73.965 49 79 49z" fill="#A36437"/><path d="M36 0h35l-1 4-1.934-.254-2.504-.308-2.496-.317L61 3c-1.422 1.316-1.422 1.316-3 5h12l-1 4h-4v-2h-2v2c-9.41 1.333-9.41 1.333-14 0V9l5-1-.5-2.375C53 3 53 3 53 1h-6l1 4-5 1 1 2 3-1v5h-7v2l-2.313-1C35.01 11.826 35.01 11.826 32 12V7l8 1V2l-4 1V0z" fill="#9DDAEF"/><path d="m115.033 117.863 2.405.012 2.392-.012c5.917.01 5.917.01 8.17 1.137v9h-13l3-4H81v-2h10v-2c1.823-.09 1.823-.09 3.684-.184l4.754-.254 2.431-.119c4.786-.262 8.37-1.572 13.164-1.58z" fill="#B5E099"/><path d="M33 113v2c3.532 3.054 6.269 4.194 10.875 4.875 7.77 1.16 14.868 4.23 22.125 7.125v1c-3.875.058-7.75.094-11.625.125l-3.316.05c-5.463.034-9.932-.068-15.059-2.175h-3v-2h-2v-2h-3l-1-3h3l-6-4c1-2 1-2 2.813-2.688 2.375-.339 3.92-.04 6.187.688z" fill="#96886E"/><path d="M74 32c-.515 4.667-1.722 7.663-4.313 11.563l-1.8 2.753C64.387 51.296 61.342 54.931 56 58h-3c-.94-7.336 3.248-12.538 7.313-18.25C64.11 35.865 68.377 32 74 32z" fill="#6E934E"/><path d="M59 97v2h2l-.438 2.555-.562 3.32-.563 3.305c-.488 2.674-.488 2.674-.437 4.82h-4l1 2c-2.313.625-2.313.625-5 1l-3-2c-1.664-.674-3.33-1.34-5-2a398.489 398.489 0 0 1-6-3v-1c7 0 7 0 8.938 1 2.13 1.218 2.13 1.218 5.062 1l2-3-2.117-.078-2.758-.172-2.742-.14C43 106 43 106 41.68 103.952L41 102l2.555-1.059 3.32-1.379 3.305-1.37C55.492 95.946 55.492 95.946 59 97z" fill="#745243"/><path d="M64.625 103.875 67 104v2h2l1-2c.286 7.429.286 7.429-2 11l5-2-1 2 12 1v1c-11.07 3.136-23.19 5.844-33.938.5A90.091 90.091 0 0 1 46 115l3-2 3 2 2-1a224.66 224.66 0 0 1 6-1l-.125-3.375c.145-4.199.4-5.543 4.75-5.75z" fill="#5F4433"/><path d="M95 15h8v2l1.863-.105 2.45-.082 2.425-.106C112 17 112 17 113.61 18.137c2.515 3.369 4.045 7.246 5.793 11.05 1.633 2.875 3.016 3.882 5.598 5.813 1.663 5.2 1.009 10.731 0 16h-1l-.813-3c-.393-1.334-.789-2.667-1.187-4l-.555-2.035C119.7 36.374 116.83 33.26 112 30l-2.133-.984c-2.84-1.545-3.445-4.172-4.867-7.016-3.089-2.926-5.985-4.623-10-6v-1z" fill="#C1ECF5"/><path d="M30 113c8.318-.42 15.374.109 22.563 4.602 4.91 1.997 9.387 1.642 14.624 1.46a625.03 625.03 0 0 1 5.918-.152l2.63-.09C78 119 78 119 81 121h-8l1 4c-18.44-.577-18.44-.577-25.133-3.324-2.026-.734-3.722-.876-5.867-.989-5.142-.466-9.085-3.497-13-6.687v-1z" fill="#BDCC90"/><path d="M81 45c3.625.375 3.625.375 7 1l-1 5h2v3h-2c.458 3.47.891 6.674 2 10l-3.313 1.313C82.906 66.495 80.938 67.608 79 70l-1-4h-3l1-10h2l1 6c1.053-2.631 1.053-2.631 1-4l-1-1a72.148 72.148 0 0 1-.188-4.938l-.042-2.714C79 47 79 47 81 45z" fill="#E9DB85"/><path d="m92.285 112.902 2.778.035 2.785.028L100 113v1c14.073 2.623 14.073 2.623 28 1v4l-1.728-.016c-2.57-.02-5.14-.034-7.71-.046l-2.72-.026-2.588-.01-2.396-.016c-1.874-.091-1.874-.091-2.858 1.114-4.257.218-8.52.186-12.783.185-2.142.002-4.284.02-6.426.04-1.356.003-2.712.005-4.068.005l-3.758.013C78 120 78 120 76 118c1.416-.481 2.833-.96 4.25-1.438l2.39-.808C85 115 85 115 87.235 114.464c2.378-.625 2.437-1.45 5.051-1.562z" fill="#84AE66"/><path d="M61 81h4c-.704 3.17-1.451 6.135-3 9-2.625.813-2.625.813-5 1l-1 4 7-1v2h2c-.63 5.54-.63 5.54-2.563 7.938-2.08 2.984-1.641 5.521-1.437 9.062l-5 2-2-3 5 1-.688-1.938C57.86 106.626 59.417 103.106 61 99l-3 1v-3c-4.559.776-8.462 2.352-12.695 4.16C43 102 43 102 40 102v-2c2.943-2.115 5.759-3.232 9.188-4.25 2.077-.656 2.077-.656 3.812-1.75 1.551-3.469 1.551-3.469 2-7l1-2c2.563-.625 2.563-.625 5-1v-3z" fill="#382E26"/><path d="m114 16 1 2 3 1c1.281 1.996 1.281 1.996 2.5 4.438 1.664 3.321 2.311 4.436 5.5 6.562.766 2.102.766 2.102 1.25 4.625l.516 2.477c.302 3.733-.178 7.222-.766 10.898l-.38 2.398C124.794 61.432 122.635 71.762 118 82l-2-1c.875-4.75.875-4.75 2-7h-2a220.52 220.52 0 0 1 3.219-6.27C124.409 57.43 125.4 46.414 125 35l-1.8-.707c-4.548-2.673-7.439-8.508-8.805-13.508-.27-1.91-.27-1.91-.395-4.785z" fill="#4E5A4B"/><path d="M120 44c3.766 5.65 3.767 11.388 3 18-1.313 3.278-2.965 6.121-5 9-1.5-1.375-1.5-1.375-3-3v-2l-4-1c.604-3.85 1.768-6.861 3.563-10.313l1.378-2.675L117 50l2 1 1-7z" fill="#A5E4ED"/><path d="m8 77 3.25 1c3.747 1.172 3.747 1.172 7.75 1l2 .07c4.205.173 4.205.173 8.125-1.132 2.787-1.394 4.924-.609 7.875.062l-1.762 1.305c-1.4 1.06-2.78 2.145-4.133 3.265C26.74 86.11 23.764 87.674 18 88c-1.67.316-3.338.646-5 1l-.84-2.117-1.098-2.758-1.09-2.742C9.052 79.039 9.052 79.039 8 77z" fill="#F4EFC1"/><path d="M61 69c.553 2.076 1 3.844 1 6 .318 1.67.65 3.337 1 5l-1.61.77C57.669 82.583 54.203 84.33 51 87c-1-1-1-1-1.098-4.598.007-1.488.019-2.976.035-4.465l.014-2.298c.012-1.88.03-3.76.049-5.639l3.813-.063 2.144-.035C58 70 58 70 61 71v-2z" fill="#F9F7D6"/><path d="M127 44h1c.124 4.484.214 8.967.275 13.452.025 1.525.059 3.05.102 4.574.061 2.195.09 4.388.111 6.583l.08 4C128 76 128 76 125.614 78.383c-2.17 1.341-4.284 2.58-6.614 3.616.599-4.797 1.55-9.291 2.875-13.938C124.081 60.127 125.593 52.11 127 44z" fill="#DEF6E7"/><path d="M108 49c2.798 4.197 3.317 7.985 3 13-1.461 3.89-3.158 8.079-7 10-1.996.36-3.995.695-6 1l-2-3c-3.355-.366-3.355-.366-7.125-.188l-3.883.083L82 70c.867-1.953.867-1.953 2-4 2.125-.75 2.125-.75 4-1v2h3v-4h4v4c3.3.936 3.3.936 7 1 4.298-4.071 5.092-7.977 5.563-13.688l.253-3.011L108 49z" fill="#EBE8A0"/><path d="m109 72 2 1c.414 2.066.414 2.066.625 4.563l.227 2.503L112 82l-3-1-1 1 2 1v2l-5 1v3l-1 2h-2v3h-4l-1-3c-2.763.523-5.326 1.109-8 2 1.152-2.468 2.048-4.048 4-6l3.25-.813c4.374-1.385 6.582-2.875 9.75-6.187 1.305-2.645 2.134-5.162 3-8z" fill="#17100E"/><path d="M85 16c2.755.565 5.502 1.151 8.25 1.75l2.355.477c4.528 1.006 7.541 1.85 10.395 5.773.75 3.25.75 3.25 1 6-8.474-.721-14.057-3.943-20-10-1.281-2.258-1.281-2.258-2-4z" fill="#B5E2B4"/><path d="M111 6c2.438.75 2.438.75 5 2 .813 2.125.813 2.125 1 4l1.863.281C121 13 121 13 122.23 14.531c2.503 5.15 3.506 9.756 3.77 15.469-4.749-2.11-6.075-4.641-7.91-9.258-.965-1.946-.965-1.946-3.211-2.484L113 18c-1.138-4.266-2-7.565-2-12z" fill="#8EB088"/><path d="M25 0h11l1 2h3v6c-3.41 1.137-5.52.696-9 0-3.002-.091-5.998-.059-9 0-1.125-3.75-1.125-3.75 0-6h3V0z" fill="#AADFF2"/><path d="m20 116 2.125 2.188c2.803 2.81 5.81 5.292 8.875 7.812l2 2H12c1.614-4.035 2.405-5.797 5.125-8.813l1.633-1.832L20 116z" fill="#CAD89A"/><path d="m78 98 1.188 2c1.622 2.262 1.622 2.262 4.124 2.125L86 102a100.38 100.38 0 0 1 6 2v-3l7-1c1.125 3.75 1.125 3.75 0 6-3.645.89-6.427 1.237-10 0v2h-3v2l6-2-1 4-6-1v-3h-2v-2l-7 2c.14-1.48.288-2.959.438-4.438.08-.823.162-1.647.246-2.496C77 99 77 99 78 98z" fill="#894F25"/><path d="M128 104v8c-2.416.222-4.832.428-7.25.625l-2.066.195c-3.807.296-6.462.356-9.684-1.82 5.191-6.003 10.957-9.212 19-7z" fill="#83C9A1"/><path d="M94 38h2l1 2h5l1 2h-2l2 2c0 2.871-.271 5.23-1 8l-2 1-1 1a128.624 128.624 0 0 1-6-1l.625-1.625c.506-3.208-.471-5.388-1.625-8.375l2-1-1-2 1-2z" fill="#EAEDB1"/><path d="m60 1 1 2 2.938-.125c4.44 0 8.86.664 13.062 2.125l1 2h-2v4l-6 3-3-2 2-3-5.957.098C61 9 61 9 58 8V6l-2-1 3-1-1-2 2-1z" fill="#C4E7F3"/><path d="M91 120c9.072-.095 17.982-.145 27 1l-1 3H81v-2h10v-2z" fill="#9FBB80"/><path d="M0 71c3.015 1.173 4.669 2.372 6.188 5.25A69.413 69.413 0 0 1 10 89a50.38 50.38 0 0 0 5.188 9.063c1.885 3.056 2.224 4.436 1.812 7.937h-2l-.839-1.817a2238.102 2238.102 0 0 0-3.848-8.246c-.436-.942-.87-1.885-1.319-2.857-2.003-4.259-3.972-8.247-6.806-12.017C-.417 77.415-.447 75.383 0 71z" fill="#332924"/><path d="m82 66 2 1-2 3 15-1 1 4c-6.4 3.077-6.4 3.077-9.438 2.688L87 75l-1 2-1-1-3.375-.438C78 75 78 75 75 73l2.375-1.813C80.145 69.09 80.145 69.09 82 66z" fill="#5A5953"/><path d="M0 100h9l1 2a78.037 78.037 0 0 0 5 2v2c-9.226 4.592-9.226 4.592-15 4v-10z" fill="#70C293"/><path d="M29 51h1c.313 2.688.313 2.688 0 6-2.25 2.688-2.25 2.688-5 5l-2 1.875C21 65 21 65 18.562 65c-3.353-1.309-5.181-3.347-7.562-6h8l1-3 2.25-.25c3.268-.891 4.514-2.274 6.75-4.75z" fill="#CFB26B"/><path d="M20 7v1l12 1v3l1.813-.625C36 11 36 11 39 13c-2.944 1.472-5.374.85-8.625.563l-3.602-.31L24 13v-2l-2.813 1.063C18 13 18 13 15 12c-2.529.845-2.529.845-5 2l-3 1c2-6 2-6 3.625-7.188C13.804 6.726 16.667 6.873 20 7z" fill="#C9EBF7"/><path d="m93 5 1 2 14-1-1 2-3.438.813L100 10l-2 5-12-1 1-3h2V9l-9 1V8c1.79-.195 3.583-.38 5.375-.563l3.023-.316C91 7 91 7 93 8V5z" fill="#D1F2F8"/><path d="M119 8h2v2h2v2h2l-1-3h2c2.391 3.587 2.234 5.164 2.195 9.418l-.02 3.799-.05 3.97c-.01 1.336-.02 2.671-.027 4.006-.024 3.27-.057 6.538-.098 9.807h-1l-.297-3.184C125.888 28.886 124.92 22.072 121 15l-1.75-3.563L118 9l1-1z" fill="#B8EDF8"/><path d="M109 64h1c-.984 8.525-.984 8.525-3 11a102.603 102.603 0 0 1-7 2l-3.125 1.688C94 80 94 80 91.25 79.938 89 79 89 79 87.687 76.938L87 75l3.688-.313C94.469 74.236 96.76 73.014 100 71c2.813-.188 2.813-.188 5 0l4-7z" fill="#DED161"/><path d="M95 36c3.426 0 5.973.115 8.645 2.418 1.459 1.82 2.495 3.412 3.355 5.582-.61 5.088-3.23 7.701-7 11l-2 1a78.037 78.037 0 0 0-2 5l-3-1v-7l6 1-1-3 3 1 .438-2.938C102 46 102 46 103 45l-2-1 1-3h-5l-1-3-2-1 1-1z" fill="#A4A072"/><path d="m15 108 1 2 2 1-2.082 1.645-2.73 2.168-2.708 2.144c-2.403 1.912-2.403 1.912-4.136 3.7C4.47 122.53 2.294 123.698 0 125v-8c1.29-.672 2.581-1.337 3.875-2l2.18-1.125C8 113 8 113 10 113v-4c2-1 2-1 5-1z" fill="#A58976"/><path d="M100 30c9.095-.625 9.095-.625 12.625 1.813C114 34 114 34 114 37h-2v-2h-4l1 7 3 1-1 3-3 1-1.242-1.898-1.633-2.477-1.617-2.46c-1.467-2.24-1.467-2.24-3.508-4.165h4l1-3h-5v-3z" fill="#B6E6F1"/><path d="m33 98 1 2h3c5 5.349 5 5.349 5 8-5.415 1.23-5.415 1.23-8.375.063L32 107h2l-2-2c-2.233.199-2.233.199-4.625.875l-2.477.617L23 107c1.507-3.013 4.032-3.61 7-5l-10 2c3.317-2.488 4.996-3.528 8.75-4.688.8-.25 1.598-.502 2.422-.761L33 98z" fill="#513428"/><path d="M57 99c-.353 2.614-.65 4.523-2.227 6.672-2.429 1.819-3.855 1.577-6.836 1.266l-2.66-.223C43 106 43 106 41.691 103.94L41 102c5.552-2.835 9.801-3.38 16-3z" fill="#88C89A"/><path d="M103 86h6c-3.314 10.415-3.314 10.415-9 14-2.702.607-5.221.812-8 1v3l-5-1 3-1 .25-1.875C91 98 91 98 94.563 96.25L98 95v2h2v-3h2v-3h2l1-3-2-2z" fill="#995A2F"/><path d="M86 83h2l1 2h3c-1 3-1 3-3 4l-1 3c-2.063 1.188-2.063 1.188-4 2l3 1-5 4-3-5-3 1c.25-1.875.25-1.875 1-4 1.938-1.063 1.938-1.063 4-2l2-3h2l1-3z" fill="#5E4D42"/><path d="m82 107 2 3-6 1v-2h-2v4l3.188-.563c3.383-.388 5.576-.32 8.812.563-1.05 1.488-1.05 1.488-3 3-3.355.293-3.355.293-7.188.188l-3.855-.083L71 116v-2l-4 2c.688-2.375.688-2.375 2-5 2.438-1.188 2.438-1.188 5-2 3.208-2.139 4.277-2.477 8-2z" fill="#1E120C"/><path d="M64.625 103.875 67 104v2h2l1-2c.25 6.625.25 6.625-2 10h-2v2l-3-1h-4l-1 2-2-2 4-2-.125-3.375c.145-4.199.4-5.543 4.75-5.75z" fill="#418D69"/><path d="M52 55c1.188 1.563 1.188 1.563 2 4a143.359 143.359 0 0 1-2.244 4.935c-1.462 3.994-1.104 8.178-1.006 12.377l.016 2.745C50.669 83.684 50.669 83.684 52 88h-2v3c-4.75-.875-4.75-.875-7-2v-3h5l-2-11h2l-.25-3.25C47.707 65.817 49.95 60.49 52 55z" fill="#9A9C81"/><path d="M26 116c4.164.526 6.249 1.746 9.375 4.5 3.975 3.21 6.433 4.231 11.625 4.5 1.983.334 3.962.69 5.938 1.063l2.902.535L58 127v1c-2.542.054-5.083.094-7.625.125l-2.16.05c-4.506.042-7.943-.584-12.215-2.175h-3v-2h-2v-2h-3l-1-3h3l-4-3z" fill="#7D6356"/><path d="m71 75 1 8 2.082.184 2.73.254c.894.08 1.787.162 2.708.246C82 84 82 84 85 85l-2 1c-1.134 2.017-1.134 2.017-2 4h-2v-2c-3.278.752-3.278.752-5 4v-5h-2l-1 2c-2-3-2-3-2-7h-2c-.188-2.375-.188-2.375 0-5 3-2 3-2 4-2z" fill="#1D110E"/><path d="m107 98 1.375 1.438c1.558 1.652 1.558 1.652 3.625 2.562-.563 2.813-.563 2.813-2 6-3.563 1.75-3.563 1.75-7 3l-1 2c-2.504.414-2.504.414-5.563.625l-3.066.227L91 114c2.172-2.733 3.858-4.729 7.336-5.555A83.325 83.325 0 0 1 105 108v-1l-3-1 1-3h2l.438-1.938C106 99 106 99 107 98z" fill="#5D3C21"/><path d="M61 81v3l-5 1-.367 1.898-.508 2.477-.492 2.46C54 94 54 94 52 96c-2.36.458-4.74.821-7.125 1.125l-3.883.508L38 98c2.03-1.561 3.879-2.941 6.188-4.063 1.99-.804 1.99-.804 2.812-2.937h3v-3h2l.688-1.813C54.566 83.058 57.254 81 61 81z" fill="#624C38"/><path d="M76 56c.125 7.75.125 7.75-1 10h3c.688 1.813.688 1.813 1 4-1.125 1.813-1.125 1.813-3 3-2.625-.188-2.625-.188-5-1-1.744-3.488-.85-7.29 0-11 3.265-5 3.265-5 5-5z" fill="#F2DE68"/><path d="m117 27 3 3 2.625 2.125c3.567 4.318 3.649 8.55 3.2 14.012-.222 1.629-.516 3.248-.825 4.863h-1l-.813-3c-.393-1.334-.789-2.667-1.187-4l-.555-2.035C119.685 36.322 116.742 33.43 112 30l1.938-.938c1.998-.897 1.998-.897 3.062-2.062z" fill="#A2E2F4"/><path d="m114 16 1 2 3 1c1.281 1.996 1.281 1.996 2.5 4.438 1.664 3.321 2.311 4.436 5.5 6.562.73 2.602.73 2.602 1.188 5.625l.48 3.04c.11.77.22 1.54.332 2.335l-2 1-.25-3.375L125 35a569.287 569.287 0 0 0-4-2c-4.071-5.215-6.712-10.372-7-17z" fill="#47A418"/><path d="m70 37 1 2c-2.292 6.743-5.965 12.889-11.875 17L57 57l-2-2c1.747-2.253 3.497-4.502 5.25-6.75l1.488-1.922C64.328 43.013 66.931 39.894 70 37z" fill="#C2D196"/><path d="M23 107c-2.463 2.463-4.707 2.998-8 4v-3l-5 1v4c-1.29.672-2.581 1.337-3.875 2l-2.18 1.125C2 117 2 117 0 117v-7l3.688-.875c2.452-.595 4.419-1.178 6.687-2.313 4.212-1.303 8.316-.431 12.625.188z" fill="#A38749"/><path d="M43.063 111.063 46 113v1c-1.146-.095-2.292-.19-3.473-.29l-4.59-.335-2.279-.195c-5.053-.35-8.868.153-13.658 1.82.063-1.813.063-1.813 1-4 6.724-4.062 13.24-3.797 20.063.063z" fill="#140C0A"/><path d="M73 121h3l1 4 7 2v1c-19.005.738-19.005.738-27-4 3.427-1.142 5.611-.909 9.188-.563l3.292.31L72 124l1-3z" fill="#D5DDB9"/><path d="M119.848 93.336c2.776.036 5.412.225 8.152.664v5l-2.3.043c-2.98.143-5.78.345-8.7.957-2.288 2.355-2.288 2.355-3 5l-3-1c4.039-9.543 4.039-9.543 8.848-10.664z" fill="#418648"/><path d="M78 49h1l.188 3.75c.416 3.556.655 4.096 3.374 6.75L85 61l-5-1 1 3-3-1v-6c-2.92 1.46-4.68 2.436-6.313 5.313-1.019 3.985-1.303 7.224.313 11.062L73 74l-4 3c-1.706-6.886-.812-13.76 2.66-19.969C75.601 51.4 75.601 51.4 78 49z" fill="#6D5E36"/><path d="m109 45 9 3c-1.835 4.74-3.92 9.364-6 14h-1c-.504-2.103-1.003-4.208-1.5-6.313l-.844-3.55C108 49 108 49 108 46l1-1z" fill="#9A7F56"/><path d="M33 113v2c1.375 1.542 1.375 1.542 3 3l2 2c2.657.682 2.657.682 5.625 1.125l3.04.508L49 122c-2.18 2.18-3.81 2.968-6.871 3.371-4.003-.698-6.685-3.72-9.602-6.39-2.761-2.164-5.165-3.059-8.527-3.981 1-2 1-2 2.813-2.688 2.375-.339 3.92-.04 6.187.688z" fill="#CAA980"/><path d="m73 53 2 1-1.875 2.25c-2.696 3.982-3.093 8.263-3.73 12.945A53.085 53.085 0 0 1 68 76l-1.313-2.5L65 71h-3l1-5h2l1.188-3.688C67.73 58.136 69.656 55.892 73 53z" fill="#CCB454"/><path d="m119.504 98.902 3.058.035 3.067.028L128 99v5l-2.438-.188c-4.538.24-8.331 1.608-12.562 3.188l-2-2h3l.938-2.438c1.467-3.539 1.467-3.539 4.566-3.66z" fill="#58BC87"/><path d="m87 77 7 3-1 6 2 1-2.375 1.813C89.855 90.91 89.855 90.91 88 94h-4l1-2h3l1-5h2l1-2-4 1v-3l-4 2-2-4 4 1 1-5z" fill="#8D735B"/><path d="M5 74c5.475 4.38 8.073 10.33 10 17-.367 2.371-.367 2.371-1 4-3-1-3-1-4.625-4.188C8.096 87.58 7.535 84.436 7 81a177.537 177.537 0 0 0-2-4v-3z" fill="#84725B"/><path d="M0 78c4.526 4.526 4.526 4.526 6.25 8.125l1.016 2.07C8 90 8 90 8 92H0V78z" fill="#E7D4AF"/><path d="M47 1h6c1.125 3.75 1.125 3.75 0 6l2 1-2.875.875C48.948 9.768 48.948 9.768 47 12l-1-4h-2l-1 2-1-4 3-2 3 1-1-4z" fill="#B5DAE9"/><path d="M64 8c2 .036 4 .05 6 0l-1 4h-4v-2h-2v2c-9.41 1.333-9.41 1.333-14 0V9c5.611-1.987 9.135-1.931 15-1z" fill="#788892"/><path d="M127 44h1v23h-2v2h-2c-1.071-3.298-.903-5.604-.223-8.984l.557-2.832c.2-.968.398-1.937.603-2.934l.592-2.98c.483-2.425.973-4.848 1.471-7.27z" fill="#ABDFE5"/><path d="M90 113h10v1c14.073 2.623 14.073 2.623 28 1v4l-39-3 1-3z" fill="#6E9D5C"/><path d="M76 56h2l1 6h10v2l-3.313 1.313C82.906 66.495 80.938 67.608 79 70l-1-4h-3l1-10z" fill="#DDD183"/><path d="M47 58h1v17c-3.477-1.16-3.716-1.683-5.313-4.813l-1.113-2.082C41 66 41 66 41.707 63.801 43 62 43 62 46 61l1-3z" fill="#82AB49"/><path d="M81 121h-8l1 4-14-1-1-3c17.243-3.171 17.243-3.171 22 0z" fill="#C9D89F"/><path d="M119 3h4v2a105.022 105.022 0 0 0 5 4l-1 3-1-3-1 3h-2v-2h-2V8c-2.139 2.139-2.427 3.133-3 6-2.9-2.395-3.502-4.312-4-8h4l1-3z" fill="#84DFF3"/><path d="m48 113 1.875 1.063L52 115l2-1 1.875 1c2.54 1.195 3.54.923 6.125 0v2l6 1v2c-8.7.673-14.554-.387-22-5l2-2z" fill="#38261A"/><path d="m99 90-1 4h2v3l-3-1-3 2c-3.188.125-3.188.125-6 0 .188-2.313.188-2.313 1-5 3.332-2.684 5.762-3.363 10-3z" fill="#492D2D"/><path d="M78 75c3.375-.125 3.375-.125 7 0l2 2c-.375 2.625-.375 2.625-1 5l-4-1 1 3h-2v-2l-4-1 1-6z" fill="#EDE17F"/><path d="M83 14c7.78-.745 13.455.637 20 5l1 2c-16.257-1.505-16.257-1.505-21-7z" fill="#72AD67"/><path d="m46.125 20.938 3.32.027L52 21v2l-8 2 2 1-1 4h-4v-4l-2-1-1-3c2.765-1.382 5.046-1.095 8.125-1.063z" fill="#9DA5A5"/><path d="m32 7 1.758.254C38.423 7.862 42.354 8.072 47 7v5h-7v2l-2.313-1C35.01 11.826 35.01 11.826 32 12V7z" fill="#788C97"/><path d="m111.066 124.902 2.496.035 2.504.028L118 125c-1.072 1.482-1.072 1.482-3 3-3.094.34-3.094.34-6.855.293l-2.005-.013a622.98 622.98 0 0 1-6.328-.093c-1.431-.015-2.863-.028-4.294-.04-3.507-.034-7.012-.085-10.518-.147v-1c4.758-1.238 9.377-1.077 14.25-1 2.922.046 5.827.047 8.75 0 1-1 1-1 3.066-1.098z" fill="#D7EAC0"/><path d="m115 83 3 1-.781 5.957c-.272 2.198-.272 2.198-.219 5.043-1.171 2.442-2.597 4.677-4 7l-4-1 3-7h2l1-11z" fill="#2D231A"/><path d="M128 86v8h-10c2.31-4.618 4.537-8 10-8z" fill="#50938F"/><path d="M74 32c-.615 5.538-.615 5.538-2.563 7.875L70 41l-1-4-2.313 2.5C64 42 64 42 61 42c.354-2.809.786-3.815 2.96-5.703l2.415-1.547 2.398-1.578C71 32 71 32 74 32z" fill="#87A576"/><path d="M55 96c2.188.313 2.188.313 4 1v2h2l-2 9-7 2 .84-1.645 1.097-2.168 1.09-2.144c1.08-2.161 1.08-2.161 1.973-5.043h-5c1.25-1.563 1.25-1.563 3-3z" fill="#5F5C45"/><path d="M120 14c3.498 3.032 4.92 5.5 6 10 .125 3.375.125 3.375 0 6-3-1-3-1-4.422-3.652l-1.328-3.285-1.36-3.278C118 17 118 17 119 15l1-1z" fill="#7CAE72"/><path d="m88 93 1 2-1 3h3l-1 4h-3l-1 2v-2l-5 1-1-2c4.625-5.75 4.625-5.75 8-8z" fill="#402C2B"/><path d="M91 63h4c-.875 4.75-.875 4.75-2 7H82c2-4 2-4 4.125-4.75L88 65v2h3v-4z" fill="#F7F8F6"/><path d="m93 27 7 3v3l6-1-1 5c-2.923-.097-5.234-.176-8-1-2.737-3.148-4-4.8-4-9z" fill="#D4F0F4"/><path d="M99 0h22c-2 2-2 2-5.625 2.125L112 2v3c-4.973-.497-8.638-1.553-13-4V0z" fill="#6FD8EF"/><path d="M76 0c3.77-.058 7.541-.094 11.313-.125 1.071-.017 2.143-.034 3.248-.05l3.115-.02 2.872-.032C99 0 99 0 102 2l-7 2V1h-2l-1 3-2-2c-2.57-.648-2.57-.648-5-1l-1 2-2.875-.063C78.093 2.775 78.093 2.775 76 4V0z" fill="#8EDCF4"/><path d="M88 34h3v2l3-1c0 4.246-1.818 6.385-4 10h-5v-2l-2-1h3l1 1 2-1v-2l-3-1 2-5z" fill="#DEEEE6"/><path d="M16 94h15l-1 4 2 1c-3.803 1.268-5.317.381-9-1-2.947-1.158-2.947-1.158-6-1l-1-3z" fill="#48735F"/><path d="M43 44c1.943 2.915 2.79 5.103 3.75 8.438l.86 2.87c.439 3.029.035 4.172-1.61 6.692h-3V44z" fill="#C7D87F"/><path d="m89 57 1 2-1 2h6l.75 1.75c1.417 2.55 3.126 4.268 5.25 6.25l-6-2v-4h-4v4h-3v-2l-4 1 1-2h4v-2l-3-1 1-3 2-1z" fill="#8A8166"/><path d="M82 15h3l1.125 2.063C90.506 23.927 97.395 27.648 105 30c-4.205 1.402-6.38.053-10.355-1.629-5.17-2.68-9.478-6.085-12.145-11.308L82 15z" fill="#4D8544"/><path d="M115 88c-.375 2.938-.375 2.938-1 6l-2 1-2 3v-3l-3 1c.25-3.375.25-3.375 1-7 2.812-2.25 3.528-2.157 7-1z" fill="#56361F"/><path d="M94 19c3.42.423 6.716.938 10 2 1.563 2.375 1.563 2.375 2 5l1 4-10-2 4-1 2-1-1.969-1.277-2.531-1.66-2.531-1.653L94 20v-1z" fill="#95C58A"/><path d="m23.688 82.875 3.011.055L29 83c-2.397 2.973-3.626 3.925-7.438 4.688L18 88c-1.67.32-3.337.647-5 1 2.331-5.38 5.018-6.258 10.688-6.125z" fill="#EBCB89"/><path d="M95.438 86.75C98 87 98 87 101 89l1-2c1.333 2.667.671 4.167 0 7h-4l-1-3c-2.763.523-5.326 1.109-8 2 2.74-5.87 2.74-5.87 6.438-6.25z" fill="#271814"/><path d="M52 65c1.996.05 1.996.05 4.438.313l2.433.238C61 66 61 66 63 68l-2 3c-2.094.328-2.094.328-4.5.25l-2.406-.047C52 71 52 71 50 70c.875-3.875.875-3.875 2-5z" fill="#F5F8E9"/><path d="M81 45c3.625.375 3.625.375 7 1-.506 2.169-1 4-2 6h-3l-1-2-2 6h-1a292.931 292.931 0 0 1-.125-4.375l-.07-2.46C79 47 79 47 81 45z" fill="#EBDF80"/><path d="M24 120h4v2h3v2h2v2l2.25-.625c3.073-.42 4.178.006 6.75 1.625v1c-4.746.38-8.07.482-12.375-1.75-2.293-1.965-4-3.72-5.625-6.25z" fill="#2C1D17"/><path d="m78 98 1.188 2c1.666 2.292 1.666 2.292 4.5 2.25L86 102l-1 5c-1.392-.03-1.392-.03-2.813-.063-3.21-.095-3.21-.095-6.187 1.063.14-1.48.288-2.959.438-4.438.08-.823.162-1.647.246-2.496C77 99 77 99 78 98z" fill="#8F5D39"/><path d="M72 87h2l2 12h-2v2h-2v-4h-2l-1-3 3-1-2-1c.875-3.875.875-3.875 2-5z" fill="#7D572B"/><path d="m110 62 2 3c2.552 1.205 2.552 1.205 5 2l-1 7h2l-1 3c-4.21-2.468-5.438-5.47-7-10-.188-2.938-.188-2.938 0-5z" fill="#8E724A"/><path d="M0 64c2.169.506 4 1 6 2v7c-3 0-3 0-6-2-.188-3.625-.188-3.625 0-7z" fill="#E7E8D5"/><path d="m10 116 2 3a564.22 564.22 0 0 1-4.313 4.5l-2.425 2.531C3 128 3 128 0 128c.386-2.798.801-3.82 2.938-5.75C5 121 5 121 7 121l.938-1.938C9 117 9 117 10 116z" fill="#8B6A55"/><path d="m70 101 6 3c-.75 4.75-.75 4.75-3 7l-4-1 1-9z" fill="#8D6328"/><path d="M37 78c-6.936 5.261-6.936 5.261-12.188 5.125l-2.73-.055L20 83c5.444-4.232 10.037-6.868 17-5z" fill="#F1EAA4"/><path d="M17 122h3v2h3l-1 4H12l1-3h3l1-3z" fill="#D7E3AC"/><path d="M13 119h2c1 3 1 3-.5 6.188C12 128 12 128 8.25 128.375L5 128c.957-1.126 1.916-2.25 2.875-3.375l1.617-1.898A75.822 75.822 0 0 1 13 119z" fill="#604735"/><path d="M33 98c1 3 1 3 .352 5.11-1.78 2.487-3.007 2.63-5.977 3.14l-2.477.453L23 107c1.507-3.013 4.032-3.61 7-5l-10 2c3.317-2.488 4.996-3.528 8.75-4.688.8-.25 1.598-.502 2.422-.761L33 98z" fill="#6B5A46"/><path d="M35 124c8.017-.415 15.22 1.14 23 3v1c-2.522.082-5.04.14-7.563.188l-2.134.076c-5.183.071-8.666-.942-13.303-3.264v-1z" fill="#604637"/><path d="M15 104v2c-9.226 4.592-9.226 4.592-15 4v-3c1.936-.504 3.874-1.003 5.813-1.5l3.269-.844C12 104 12 104 15 104z" fill="#268D66"/><path d="m50 88 2 1-1 2h2c-1 3-1 3-3.563 4.625C45.481 97.207 42.23 97.635 38 98c2.01-1.58 3.882-2.943 6.188-4.063 1.99-.804 1.99-.804 2.812-2.937h3v-3z" fill="#896D51"/><path d="M38 64h3c1.46 2.647 2 3.894 2 7-2.25.688-2.25.688-5 1-2.313-1.438-2.313-1.438-4-3 1.813-2.5 1.813-2.5 4-5z" fill="#F3F6E6"/><path d="m20 56 3 1-4 5 2 3c-4.833-.414-6.827-2.464-10-6h8l1-3z" fill="#BDB791"/><path d="M77 13h3c1.387 1.46 1.387 1.46 2.688 3.375l1.324 1.898C85 20 85 20 85 22l-3 1-1 3h-2l-.184-2.082-.254-2.73c-.08-.894-.162-1.787-.246-2.708-.25-2.607-.25-2.607-1.316-5.48z" fill="#C9EBF6"/><path d="m122 103 2 2c-2.237 3.356-2.425 3.193-6 4l-1 2h-3v-2l-2-1c3.125-2.645 6.088-3.844 10-5z" fill="#6CC195"/><path d="m48 100-1 3c1.814 1.814 4.55 1.635 7 2l-1 2c-1.626-.06-3.251-.149-4.875-.25l-2.742-.14C43 106 43 106 41.68 103.952L41 102c2.647-1.46 3.894-2 7-2z" fill="#678C63"/><path d="m27 89-2 5H15v-2c1.432-.7 2.87-1.384 4.313-2.063l2.425-1.16C24 88 24 88 27 89z" fill="#4C98AA"/><path d="M76 56v8h-4v8c-2-2-2-2-2.117-3.988C71.134 56 71.134 56 76 56z" fill="#E2B852"/><path d="m89 9-1 4-3.438.875L81 15l-1 2v-4l-2-1c3.24-3.24 6.535-3 11-3z" fill="#DFF6FB"/><path d="M47 94c-6.625 3-6.625 3-10 3v-2l-6 2v-3c5.452-2.897 10.277-1.908 16 0z" fill="#4C562A"/><path d="M97 96v2h3v2l-8 1v3l-5-1 3-1 .438-1.938C91 98 91 98 92.938 96.75 95 96 95 96 97 96z" fill="#BC8961"/><path d="M16.875 11.5c2.638.62 4.523.15 7.125-.5v2l2 1c-1.07.09-1.07.09-2.16.184C18.53 14.648 13.267 15.18 8 16c5.141-5.496 5.141-5.496 8.875-4.5z" fill="#DAF4FA"/><path d="m80 90 1 2 3-1v3l3 1-5 4-3-5-3 1c.313-1.938.313-1.938 1-4l3-1z" fill="#5F4C49"/><path d="M119 27c1.5 1.375 1.5 1.375 3 3v2h2l1-3c2.39 3.825 2.56 7.597 3 12l-2 1-.25-3.375L125 35c-1.884-1.317-1.884-1.317-4-2-2-3-2-3-2-6z" fill="#5A814F"/><path d="M23 107c-2.463 2.463-4.707 2.998-8 4v-3l-1.61.691-2.14.871-2.11.88c-2.44.636-3.78.36-6.14-.442 7.062-3.5 12.234-4.52 20-3z" fill="#726549"/><path d="M61 81h4a91.048 91.048 0 0 1-1 4l-.688 2.688L62 90c-3.125.813-3.125.813-6 1l1-4 4-1v-5z" fill="#1B120E"/><path d="m121 71 1 3 3 1 2 2-8 5c1-7.429 1-7.429 2-11z" fill="#D3E7B6"/><path d="M55 48h5a56.54 56.54 0 0 1-4 7v3h-3c-.18-3.947-.094-6.598 2-10z" fill="#669B3D"/><path d="M31 110c10.725-.562 10.725-.562 15 3v1c-2.125-.14-4.25-.288-6.375-.438-1.183-.08-2.367-.162-3.586-.246C33 113 33 113 31 112v-2z" fill="#382117"/><path d="M25 86c-1 3-1 3-3.813 4.75-3.151 1.236-4.156 1.532-7.187.25v-2c3.858-2.153 6.551-3.393 11-3z" fill="#78BFC9"/><path d="M121 68c1.26 3.779.48 5.034-.938 8.688l-1.152 3.011L118 82l-2-1c.875-4.75.875-4.75 2-7h-2l1-3h2l2-3z" fill="#4C422C"/><path d="M122 60c-.508 4.371-1.452 7.39-4 11h-1c-1.362-6.657-1.362-6.657 0-10 2-1 2-1 5-1z" fill="#AFE7EE"/><path d="m102 47 1 3-4 4a128.624 128.624 0 0 1-6-1v-3l3.375-.938c3.42-.885 3.42-.885 5.625-2.062z" fill="#EBE5AE"/><path d="m64 20 1 4H53v-3l11-1z" fill="#8A949C"/><path d="m125 96.938 2 .062 1 2-2.3.043c-2.98.143-5.78.345-8.7.957-2.288 2.355-2.288 2.355-3 5l-3-1c1-2.938 1-2.938 3-6 3.839-.867 7.099-.981 11-1.063z" fill="#289553"/><path d="M65 90v5h-9l1-4c2.709-1.354 5.01-1.065 8-1z" fill="#7A7A5F"/><path d="m19 117-2 4h-2v-2l-1.61 1.46-2.14 1.915-2.11 1.898C7.156 125.875 5.32 126.965 3 128a462.972 462.972 0 0 1 4.422-5.176A213.473 213.473 0 0 0 11 118.563c2.716-2.122 4.648-1.868 8-1.563z" fill="#322018"/><path d="m37 89 3.875-.188 2.18-.105L45 89l2 3c-3 2-3 2-5.5 1.75C39 93 39 93 36 91l1-2z" fill="#629393"/><path d="m37 79 5 5-2 4c-3-1-3-1-5-3 .556-4.556.556-4.556 2-6z" fill="#9EC0C4"/><path d="M90 49c3.317 4.423 3.305 5.72 3 11l2 1h-6l1-12z" fill="#EDCC84"/><path d="M57 0h14l-1 4-9-1V1l-4-1z" fill="#8EDCF1"/><path d="M66 97c1.892 2.386 3.024 4.072 4 7l-1 2h-2v-2l-4 1c.75-5.75.75-5.75 3-8z" fill="#8B602A"/><path d="M5 85c2.36 2.36 2.491 3.779 3 7H0v-4h5v-3z" fill="#B3BBAC"/><path d="M5 74c4.833 4.05 6.383 7.967 8 14h-2a793.462 793.462 0 0 1-3-5.313L6.312 79.7C5 77 5 77 5 74z" fill="#A69674"/><path d="m98 70-1 4-6 1-2-4c6.75-2.125 6.75-2.125 9-1z" fill="#43413E"/><path d="M117 27c2.248 2.052 3.002 3.007 4 6l-3 2-6-5 1.938-.938c1.998-.897 1.998-.897 3.062-2.062z" fill="#9BDAE5"/><path d="M90 113h10v1l8 1v1H89l1-3z" fill="#649552"/><path d="m28 101 3 1c-3.625 3.172-7.512 4.429-12 6l-2-2 1.898-.84 2.477-1.097 2.46-1.09c1.402-.63 2.791-1.286 4.165-1.973z" fill="#987F5E"/><path d="M34 83h3l.375 1.938L38 87l2 1 2-4 2 6c-7.75-.875-7.75-.875-10-2v-5z" fill="#81ABB1"/><path d="M95 36c6.6.6 6.6.6 9 3l-1 3a84.76 84.76 0 0 1-7-2v-2l-2-1 1-1z" fill="#898C58"/><path d="M30 113h11l-2 6-9-5v-1z" fill="#BBC787"/><path d="M20 96c3.147.7 6.026 1.76 9 3-2.173 2.173-3.01 2.648-6 3-2.25-.938-2.25-.938-4-2l1-4z" fill="#71A77A"/><path d="m122 83 3 1 3-1v3l-5.176 2.93c-1.644.964-3.238 2.013-4.824 3.07 1.059-3.403 2.009-6.014 4-9z" fill="#393124"/><path d="m87 77 7 3v1h-5l-1 3c-2.063.688-2.063.688-4 1l-2-4 4 1 1-5z" fill="#A1824B"/><path d="M128 76v7l-4 2-2-3c.904-2.71 2.622-6 6-6z" fill="#847C5E"/><path d="m99 57 3 2c-.188 1.875-.188 1.875-1 4-2.563 1.25-2.563 1.25-5 2-.75-1.75-.75-1.75-1-4 1.938-2.25 1.938-2.25 4-4z" fill="#EEB267"/><path d="m103 52 2 1v5l-2.875-.063C99.093 57.775 99.093 57.775 97 59c.188-1.813.188-1.813 1-4 2.438-1.813 2.438-1.813 5-3z" fill="#F3DD86"/><path d="M40 37h2c3.496 6.09 4.713 11 5 18-1.576-2.886-2.463-5.533-3.125-8.75l-.508-2.422L43 42h-3v-5z" fill="#7D7C6E"/><path d="M114 12c4.55 3.918 7.249 8.211 9 14l-1 2-.988-1.863-1.325-2.45-1.3-2.425c-1.26-2.285-1.26-2.285-3.055-3.805C114 16 114 16 114 12z" fill="#9ED275"/><path d="m60 1 1 2h7c-2.335 2.874-3.374 3.925-7.125 4.375C58 7 58 7 56 5l3-1-1-2 2-1z" fill="#AFE4F5"/><path d="M84 116v1c-2.103.504-4.208 1.003-6.313 1.5l-3.55.844C71 120 71 120 68 120l1-3c4.96-1.323 9.911-1.089 15-1z" fill="#77603C"/><path d="M11 95c3 1 3 1 4.688 3.25 1.377 2.886 1.582 4.602 1.312 7.75h-2a417.885 417.885 0 0 1-2-3.813l-1.125-2.144C11 98 11 98 11 95z" fill="#2F241C"/><path d="M0 92h9v3l-9 1v-4z" fill="#498F94"/><path d="m79 49 .188 3.75c.416 3.556.655 4.096 3.374 6.75L85 61l-5-1 1 3-3-1v-9l-3-1c2.875-3 2.875-3 4-3z" fill="#9C955F"/><path d="m113 57 2 1c.633 2.066.633 2.066 1.125 4.563l.508 2.503L117 67l-2 1v-2l-4-1c.523-2.763 1.109-5.326 2-8z" fill="#A0D5D7"/><path d="M81 56h4v2h2l1 3c-2.709 1.354-5.01 1.065-8 1v-3h1v-3z" fill="#E6DB70"/><path d="m100 40 3 1-2 1 2 2 1 2h-2v2l-5 2-2-2 4-1 1-7z" fill="#F5F5C6"/><path d="M98 2c5.232-.383 8.378.781 13 3l-1 4-2-1.375C104.348 5.647 101.05 4.892 97 4l1-2z" fill="#A6E6F6"/><path d="M103 110h3l1 3 3 2H98l4-2 1-3z" fill="#84B26D"/><path d="m117 99 4 2c-.625 1.875-.625 1.875-2 4-3.125 1.25-3.125 1.25-6 2l-2-2h3l.938-2.438C116 100 116 100 117 99z" fill="#4AB07C"/><path d="M121 40c3.636 6.493 4.259 11.827 3 19h-1l-.402-2.45-.535-3.237-.528-3.2c-.338-1.97-.721-3.933-1.164-5.883C120 42 120 42 121 40z" fill="#749F83"/><path d="m60 48 2 3 2-1c-1.453 3.83-3.429 5.12-7 7l-2-2 5-7z" fill="#98B87C"/><path d="M48 83h1l1 8c-4.75-.875-4.75-.875-7-2v-3h5v-3z" fill="#E2A36E"/><path d="M57.313 80.875 59 82l-2.313 1.375A152.725 152.725 0 0 0 51 87l-1-5c4.43-2.215 4.43-2.215 7.313-1.125z" fill="#EEE4AD"/><path d="m94 67 5 1v2c3.545-1.398 3.545-1.398 7-3-.625 1.875-.625 1.875-2 4-3.125 1.25-3.125 1.25-6 2l-2-3h-3l1-3z" fill="#D8D894"/><path d="M106 46c2.662 2.662 2.299 4.042 2.313 7.75-.066 4.97-.566 8.13-3.313 12.25-.625-1.813-.625-1.813-1-4l2-3c.242-3.204.242-3.204.125-6.688l-.055-3.574L106 46z" fill="#D8C669"/><path d="m2 116 3 1c-.542 3.796-2.201 5.472-5 8v-8l2-1z" fill="#B59C84"/><path d="M99.313 109.188 102 110v3l-11 1c4.185-5.046 4.185-5.046 8.313-4.813z" fill="#705028"/><path d="M0 100h9v2l-9 3v-5z" fill="#60BB84"/><path d="M112 94h2c.93 2.606 1.15 3.642.063 6.25L113 102l-4-1 3-7z" fill="#140E0B"/><path d="M128 86v5h-8c4.625-5 4.625-5 8-5z" fill="#D9C382"/><path d="M65 87h5v5l3 1-4 1c-4-4.75-4-4.75-4-7z" fill="#A2773F"/><path d="M30 84c1.274 2.547.802 3.428.063 6.125l-.59 2.195L29 94l-4-1c2.75-6.75 2.75-6.75 5-9z" fill="#5AA2B6"/><path d="M59 115h3v2l6 1v2H56l4-1-1-4z" fill="#422D1C"/><path d="M60 106h6l-1 4-5 1v-5z" fill="#269670"/><path d="m34 79 3 1c-2.751 2.955-5.397 5.152-9 7h-3l9-8z" fill="#6B9C95"/><path d="M107 74c1 2 1 2 .313 4.438-1.421 2.773-2.71 3.914-5.313 5.562l-1-4 2-1.375L105 77v-2l2-1z" fill="#C5A040"/><path d="m8 77 4 1a89.286 89.286 0 0 1 2 5l3 2-4 2-5-10z" fill="#EDE6B9"/><path d="M47 58h1v17l-3-1c-.688-2.063-.688-2.063-1-4h2l1-12z" fill="#556E45"/><path d="m93 53 4 1v6l-2 1-2-1v-7z" fill="#C8714C"/><path d="M16 36h2v9h-4l2-9z" fill="#A8A389"/><path d="M68 112v2h-2v2l-3-1h-4l-1 2-2-2c4.105-2.985 6.977-3.295 12-3z" fill="#81745E"/><path d="M85 104c2 1 2 1 4 4h-3v2l6-2-1 4-6-1v-3l-2-1h2v-3z" fill="#7C4624"/><path d="M103 86h6c-.75 2.938-.75 2.938-2 6-2.125.875-2.125.875-4 1l2-5-2-2z" fill="#BE7847"/><path d="M114 73c1.688 1.5 1.688 1.5 3 4-.648 2.83-1.761 5.382-3 8h-1a920.276 920.276 0 0 1-.063-5.438l-.035-3.058C113 74 113 74 114 73z" fill="#8C643B"/><path d="m22 57 2 1-1 2 3 1c-1.188 1.563-1.188 1.563-3 3-2.688-.313-2.688-.313-5-1l4-6z" fill="#908158"/><path d="M40 46h1l2 19-3-1V46z" fill="#B4D290"/><path d="M105 39h2v3l5 1-1 3-3 1-4-7 1-1z" fill="#A8E3F1"/><path d="M53 123c4.609.72 8.672 2.313 13 4v1h-8l-1-3c-2-1.209-2-1.209-4-2z" fill="#847967"/><path d="m66 96 6 1-1 7c-2.799-2.528-4.458-4.204-5-8z" fill="#552F1B"/><path d="m37 95 1 5h-6v-2h-2l1-2c2.089-.674 3.804-1 6-1z" fill="#2E2E21"/><path d="m85 87 3 1v4c-3.133 1.044-3.99.934-7 0v-2c1.813-1.688 1.813-1.688 4-3z" fill="#2F2727"/><path d="M124 35c2.263 3.558 2.073 6.125 1.625 10.25l-.336 3.266L125 51h-1c-.71-5.53-1.303-10.5 0-16z" fill="#C2EEF7"/><path d="m85 16 9 3-4 4a141.4 141.4 0 0 1-5-5v-2z" fill="#A6D6A8"/><path d="M38 114c2.938.375 2.938.375 6 1l1 2-1 2h-5l-1-5z" fill="#D3E1A3"/><path d="M109 103h2c0 2.313 0 2.313-1 5-2.555 1.383-5.209 2.218-8 3l-1-2 2.313-.75c2.949-1.372 3.861-2.642 5.687-5.25z" fill="#837232"/><path d="M0 99h12l2 4-5-1v-2H0v-1z" fill="#3E9F63"/><path d="M51 97c-2.357 2.73-4.581 3.889-8 5h-3v-2c3.72-2.845 6.374-3.323 11-3z" fill="#201914"/><path d="m90 92 3 1-2 1 4 1-1 3h-6c.875-4.875.875-4.875 2-6z" fill="#6F494A"/><path d="m109 72 2 1c.414 2.066.414 2.066.625 4.563l.227 2.503L112 82c-2.063-1.625-2.063-1.625-4-4 .25-3.25.25-3.25 1-6z" fill="#201310"/><path d="M78 75h6l-1.938.75c-2.25 1.066-2.25 1.066-2.812 3.375L79 81h3l1 3h-2v-2l-4-1 1-6z" fill="#E4CF65"/><path d="m93 38 2 4-3 1 3 7-3 1c-2.338-7.262-2.338-7.262-.625-11L93 38z" fill="#B0AC83"/><path d="M91.563 105.75C94 107 94 107 95 110h-3v-2l-6 2c.375-1.938.375-1.938 1-4 2-1 2-1 4.563-.25z" fill="#62301A"/><path d="M67 82h2l2 5-8 1 1-4 3 1v-3z" fill="#7F5527"/><path d="M41 82h6l1 4h-5l-2-4z" fill="#F4DE9A"/><path d="M63 45c2.125.375 2.125.375 4 1-1.049 2.622-1.65 3.794-4.125 5.25L61 52c-.125-2.375-.125-2.375 0-5l2-2z" fill="#C0D1AD"/><path d="M83 14a364.73 364.73 0 0 1 4.875-.125l2.742-.07C93 14 93 14 95 16c-1.434.25-2.873.474-4.313.688l-2.425.386C86 17 86 17 84.207 15.52L83 14z" fill="#6B936E"/><path d="m70 101 6 3v3h-6v-6z" fill="#754522"/><path d="M36 100c4.875 4.75 4.875 4.75 6 7-3.438-.813-3.438-.813-7-2l-1-3h2v-2z" fill="#937366"/><path d="M76 97c1.063 1.813 1.063 1.813 2 4l-1 3c-1.938-.375-1.938-.375-4-1l-1-2h2v-2h2v-2z" fill="#4D2B1C"/><path d="m105 94 1 3h-2l-1 5-3 1c0-4 0-4 1.375-5.75C103 96 103 96 105 96v-2z" fill="#673722"/><path d="m106 92 2 3h2v5h-3l1-2-4-1h2v-5z" fill="#4E2A19"/><path d="m50 56 2 3c-.46 2.043-.46 2.043-1.375 4.188l-.898 2.167L49 67h-1c-.25-7.625-.25-7.625 2-11z" fill="#EAECED"/><path d="m114 6 5 1v7c-2.784-1.706-3.854-2.476-4.75-5.688L114 6z" fill="#A4DCD0"/><path d="M47 1h6l1 4h-6l-1-4z" fill="#AFE1F4"/><path d="m9 111 1 2c-1.29.672-2.581 1.337-3.875 2l-2.18 1.125C2 117 2 117 0 117v-4l3.375-.438c3.446-.346 3.446-.346 5.625-1.562z" fill="#916E3E"/><path d="M57 107c2 3.75 2 3.75 2 6-4.75-.75-4.75-.75-7-3l5-3z" fill="#A18777"/><path d="M76 88h3l1 3-3 1-1 3h-2c.875-5.875.875-5.875 2-7z" fill="#352F2C"/><path d="M73 85h7v2l-1.875.813C75.7 88.956 75.7 88.956 74 92l-1-7z" fill="#050304"/><path d="M110 62c2 3 2 3 2 5h2l1 6-2 1c-3.429-7.286-3.429-7.286-3-12z" fill="#A57E4F"/><path d="m73 53 2 1-1.277 1.46-1.66 1.915-1.653 1.898C68.93 60.956 68.93 60.956 68 63l-2-1c4.143-6.429 4.143-6.429 7-9z" fill="#BFB56A"/><path d="m109 47 6 2-2 6c-1.777-2.666-2.875-5.028-4-8z" fill="#DCCF55"/><path d="M113 34c2.468 1.152 4.048 2.048 6 4v3c-1.875-.125-1.875-.125-4-1-1.25-3.063-1.25-3.063-2-6z" fill="#CDF3F9"/><path d="M93 1h2v3h2v2l-4-1v3h-2c.875-4.75.875-4.75 2-7z" fill="#A8E5F6"/><path d="M128 119v6h-4c.375-2.438.375-2.438 1-5 2-1 2-1 3-1z" fill="#AEDE91"/><path d="M33 113v2l1 2-3.313-1c-3.533-1.13-3.533-1.13-6.687-1 1-2 1-2 2.813-2.688 2.375-.339 3.92-.04 6.187.688z" fill="#7B6D56"/><path d="M48 99h9l-1 3h-6v-2l-2-1z" fill="#50AD73"/><path d="M117 94h11v1l-3.188.438c-2.967.437-5.88.94-8.812 1.562l1-3z" fill="#446B47"/><path d="m22 89 2 1c-3.323 3.938-3.323 3.938-6.75 4.25L15 94v-2a135.916 135.916 0 0 1 7-3z" fill="#3B869A"/><path d="M44 73c2.797 2.068 3.027 3.144 3.688 6.688L48 83l-1-2h-3l.563-1.75c.477-2.457.194-3.894-.563-6.25z" fill="#FBF9E4"/><path d="M34.25 77.313 37 78c-1.625 1.563-1.625 1.563-4 3-3.25-.313-3.25-.313-6-1 2.637-2.536 3.509-3.047 7.25-2.688z" fill="#ECEDBF"/><path d="M87 75h8c-2 3-2 3-4.125 3.688L89 79l-2-4z" fill="#C4BC7E"/><path d="M0 71c4.8 2.462 4.8 2.462 5.813 5.188L6 78l-6-3v-4z" fill="#725D45"/><path d="M110 67c1.563 1.25 1.563 1.25 3 3-.313 2.188-.313 2.188-1 4h-3c-1-3-1-3-.063-5.188L110 67z" fill="#8E6533"/><path d="M104 21c3.254 2.834 4.52 4.686 5 9l-4 1 2-1-.938-1.688c-1.12-2.437-1.622-4.674-2.062-7.312z" fill="#6F937F"/><path d="m114 16 1 2 3 1v8c-3.15-3.423-3.562-6.443-4-11z" fill="#639D4E"/><path d="m57 123 10 2v2c-1.481-.281-2.96-.575-4.438-.875l-2.496-.492L58 125l-1-2z" fill="#D9DDBF"/><path d="M48 100c-1 3-1 3-2 4-1.666.04-3.334.043-5 0v-2c2.647-1.46 3.894-2 7-2z" fill="#71B270"/><path d="m62 94 1 2h2c-.375 2.938-.375 2.938-1 6l-2 1 1-5-3-1 2-3z" fill="#130F0E"/><path d="M36 92c7.625.875 7.625.875 11 2l-8 3-1-4-2-1z" fill="#3A4136"/><path d="m101 87 2 2c-.375 2.625-.375 2.625-1 5h-4v-3h2l1-4z" fill="#31201F"/><path d="m62 84-1 3c-2.438 1.125-2.438 1.125-5 2l-2 1c.813-2.438.813-2.438 2-5 3-1 3-1 6-1z" fill="#452B1F"/><path d="M32.188 75.375 35 76c-3.225 1.737-6.513 2.89-10 4 1.407-4.22 2.758-5.146 7.188-4.625z" fill="#F8F4CB"/><path d="m82 46 1 3-2 2c-.648 2.57-.648 2.57-1 5h-1v-9l3-1z" fill="#F2EDA6"/><path d="M118 3v4l-7-1c2.5-3 2.738-3 7-3z" fill="#52C9E4"/><path d="M62 98c1.056 3.168 1.13 3.985 0 7a81.233 81.233 0 0 1-3 3c.308-1.48.622-2.96.938-4.438l.527-2.496C61 99 61 99 62 98z" fill="#231E19"/><path d="m55 94 6 1 1 4-4 1v-3h-4l1-3z" fill="#353628"/><path d="m97 81-1 4h-3v-3l-3-1c3.01-.934 3.867-1.044 7 0z" fill="#DABB6F"/><path d="M101 62c.687 2.49 1 4.379 1 7-2.5-1.375-2.5-1.375-5-3v-2l4-2z" fill="#EACE7A"/><path d="m104 26 3 2v2l-10-2 4-1 3-1z" fill="#8DD38F"/><path d="M93 20c3.775 1.09 6.47 1.908 9 5-3.344-.557-6.033-1.352-9-3v-2z" fill="#C8E9D9"/><path d="M27 114c6.75 1.75 6.75 1.75 9 4-4.176 1.392-6.135-.177-10-2l1-2z" fill="#BDA17B"/><path d="M26 109c-1.25 1.563-1.25 1.563-3 3-2.125-.188-2.125-.188-4-1l-1-2c3.29-1.097 4.713-.8 8 0z" fill="#AA8771"/><path d="M69 104c.981 3.053.981 4.947 0 8l-4-1 2-1c.59-1.946.59-1.946 1-4l1-2z" fill="#63996C"/><path d="m53 106 2 1-5 5-3-3a100.644 100.644 0 0 1 6-3z" fill="#30251E"/><path d="m105 102 3 1-1 3-5 1c.375-1.938.375-1.938 1-4l2-1z" fill="#945F2C"/><path d="m89 87 2 1c-.688 2.438-.688 2.438-2 5-2.625.813-2.625.813-5 1l1-2h3l1-5z" fill="#7C6762"/><path d="M102 84c-1.125 1.563-1.125 1.563-3 3-3.188-.313-3.188-.313-6-1 3.435-2.29 4.985-2.178 9-2z" fill="#B8932C"/><path d="M60 73h4l2 6-3 1-.938-2.375c-.99-2.548-.99-2.548-2.062-4.625z" fill="#A88856"/><path d="M65 69c2 3 2 3 2 6l-5-2 1-3 2-1z" fill="#9A582B"/><path d="M53 52h3c1.125 3.75 1.125 3.75 0 6h-3v-6z" fill="#42713C"/><path d="m39 41 3 1v10h-1l-2-11z" fill="#929C70"/><path d="M118 15c1.938.688 1.938.688 4 2 .75 2.625.75 2.625 1 5l-3-1c-1.188-3.063-1.188-3.063-2-6z" fill="#80BD66"/></svg>